<?xml version="1.0" encoding="UTF-8"?>
<svg width="21px" height="22px" viewBox="0 0 21 22" version="1.1" xmlns="http://www.w3.org/2000/svg" xmlns:xlink="http://www.w3.org/1999/xlink">
    <!-- Generator: Sketch 58 (84663) - https://sketch.com -->
    <title>Shape</title>
    <desc>Created with Sketch.</desc>
    <g id="Final" stroke="none" stroke-width="1" fill="none" fill-rule="evenodd">
        <g id="CSVJSON,-Design-Proposal" transform="translate(-1073.000000, -21.000000)" fill="#F2F8FA" fill-rule="nonzero">
            <g id="Group-10" transform="translate(1065.000000, 13.000000)">
                <g id="Group-2" transform="translate(8.000000, 0.000000)">
                    <g id="Group-4">
                        <g id="logomark" transform="translate(0.461538, 8.769231)">
                            <path d="M10.2910603,13.5472683 L19.277161,9.55344583 C19.7362032,9.34942706 20.2737204,9.55616445 20.4777392,10.0152067 C20.681758,10.474249 20.4750206,11.0117662 20.0159783,11.2157849 L10.2910603,15.5379707 L0.591863903,11.2272168 C0.247753701,11.0742789 0.025987526,10.7330335 0.025987526,10.3564677 L0.025987526,5.24340552 C0.025987526,4.84972307 0.257833982,4.49296653 0.617585552,4.33307695 L10.2910603,0.0337548422 L19.9269245,4.31636114 C20.4078259,4.5300951 20.6244079,5.09320834 20.4106739,5.57410977 C20.3148644,5.78968129 20.142496,5.96204967 19.9269245,6.05785926 L10.2910603,10.3404655 L5.24389692,8.0972818 C4.78485468,7.89326303 4.57811728,7.35574584 4.78213606,6.89670356 C4.98615483,6.43766131 5.52367202,6.23092392 5.98271431,6.4349427 L10.2910603,8.34976314 L17.4070295,5.18711019 L10.2910603,2.02445722 L1.84511434,5.77821097 L1.84511434,9.79351461 L10.2910603,13.5472683 Z M1.30495962,14.750951 L10.2910603,18.7447736 L19.277161,14.750951 C19.7362032,14.5469323 20.2737204,14.7536696 20.4777392,15.2127119 C20.681758,15.6717542 20.4750206,16.2092714 20.0159783,16.4132901 L10.2910603,20.7354759 L0.566142249,16.4132901 C0.107099982,16.2092714 -0.0996373969,15.6717542 0.104381388,15.2127119 C0.308400172,14.7536696 0.845917358,14.5469323 1.30495962,14.750951 Z" id="Shape"></path>
                        </g>
                    </g>
                </g>
            </g>
        </g>
    </g>
</svg>