<svg width="1454" height="415" viewBox="0 0 1454 415" fill="none" xmlns="http://www.w3.org/2000/svg">
<path d="M319 276.122C319 323.366 352.961 356.659 400.253 356.659C431.675 356.659 450.719 343.024 460.875 328.756L434.532 304.341C427.231 314.488 416.123 320.829 402.157 320.829C377.718 320.829 360.579 302.756 360.579 276.122C360.579 249.488 377.718 231.732 402.157 231.732C416.123 231.732 427.231 237.756 434.532 248.219L460.875 223.805C450.719 209.537 431.675 195.902 400.253 195.902C352.961 195.902 319 229.195 319 276.122Z" fill="#090B2B"/>
<path d="M489.766 332.878C505.953 347.78 531.662 356.659 558.323 356.659C600.854 356.659 624.658 335.732 624.658 307.512C624.658 269.463 589.427 262.488 563.084 257.415C545.944 253.927 533.883 250.439 533.883 240.927C533.883 232.049 543.405 226.659 558.005 226.659C576.732 226.659 594.188 234.585 603.393 244.415L619.263 216.829C604.345 204.78 583.714 195.902 557.688 195.902C517.379 195.902 494.844 218.415 494.844 244.098C494.844 280.561 528.805 286.902 555.149 291.976C572.606 295.463 585.936 299.268 585.936 310.049C585.936 319.561 577.684 325.585 560.227 325.585C541.184 325.585 518.331 315.122 507.222 304.659L489.766 332.878Z" fill="#090B2B"/>
<path d="M753.381 352.854L814.956 199.707H771.473L731.481 306.244L691.49 199.707H648.324L709.898 352.854H753.381Z" fill="#090B2B"/>
<path d="M868.816 177.195C882.147 177.195 892.938 166.415 892.938 153.098C892.938 139.78 882.147 129 868.816 129C855.803 129 844.694 139.78 844.694 153.098C844.694 166.415 855.803 177.195 868.816 177.195ZM848.821 199.707V356.976C848.821 374.098 840.251 381.39 828.507 381.39C825.968 381.39 822.159 381.073 819.62 380.439L817.081 413.415C821.842 414.366 827.238 415 834.538 415C871.356 415 889.13 391.854 889.13 356.976V199.707H848.821Z" fill="#090B2B"/>
<path d="M931.638 332.878C947.825 347.78 973.534 356.659 1000.2 356.659C1042.73 356.659 1066.53 335.732 1066.53 307.512C1066.53 269.463 1031.3 262.488 1004.96 257.415C987.817 253.927 975.756 250.439 975.756 240.927C975.756 232.049 985.278 226.659 999.878 226.659C1018.6 226.659 1036.06 234.585 1045.27 244.415L1061.14 216.829C1046.22 204.78 1025.59 195.902 999.56 195.902C959.251 195.902 936.716 218.415 936.716 244.098C936.716 280.561 970.678 286.902 997.021 291.976C1014.48 295.463 1027.81 299.268 1027.81 310.049C1027.81 319.561 1019.56 325.585 1002.1 325.585C983.056 325.585 960.204 315.122 949.095 304.659L931.638 332.878Z" fill="#090B2B"/>
<path d="M1183.19 356.659C1233.98 356.659 1264.45 319.878 1264.45 276.122C1264.45 232.683 1233.98 195.902 1183.19 195.902C1132.73 195.902 1102.26 232.683 1102.26 276.122C1102.26 319.878 1132.73 356.659 1183.19 356.659ZM1183.19 320.829C1158.12 320.829 1144.15 300.22 1144.15 276.122C1144.15 252.341 1158.12 231.732 1183.19 231.732C1208.27 231.732 1222.55 252.341 1222.55 276.122C1222.55 300.22 1208.27 320.829 1183.19 320.829Z" fill="#090B2B"/>
<path d="M1454 352.854V244.732C1454 214.927 1437.81 195.902 1404.17 195.902C1379.09 195.902 1360.37 207.951 1350.53 219.683V199.707H1310.22V352.854H1350.53V249.805C1357.19 240.61 1369.57 231.732 1385.44 231.732C1402.58 231.732 1413.69 239.024 1413.69 260.268V352.854H1454Z" fill="#090B2B"/>
<path d="M105.695 12.0703C109.507 8.2423 114.033 5.20592 119.016 3.1348C123.998 1.06369 129.338 -0.00155499 134.731 1.60061e-05H233.178C237.227 -0.00411932 241.237 0.793087 244.978 2.346C248.72 3.89892 252.119 6.17706 254.982 9.05C257.845 11.9229 260.115 15.3343 261.662 19.0888C263.21 22.8432 264.004 26.8671 264 30.9301V334.07C263.992 342.271 260.742 350.133 254.963 355.932C249.185 361.73 241.35 364.992 233.178 365H52.8217C44.6499 364.992 36.8151 361.73 31.0367 355.932C25.2583 350.133 22.0084 342.271 22.0001 334.07V113.127C21.9985 107.716 23.06 102.357 25.1239 97.3567C27.1877 92.3569 30.2135 87.8144 34.0281 83.989L105.695 12.0703Z" fill="#3B2FC9"/>
<path d="M196.652 285.23C196.652 323.86 202.324 306.707 167.821 306.707V289.725C184.364 289.725 185.439 304.125 185.439 285.23L226.901 219.634C226.901 201.999 233.046 188.143 248.643 182.264C233.046 176.386 226.901 162.529 226.901 144.894V101.645H263.768V140.695C263.768 156.231 271.802 169.247 288.345 169.247V195.281C271.802 195.281 263.768 208.297 263.768 223.833L196.652 285.23Z" fill="#3B2FC9"/>
<path d="M80.0867 284.966C80.0867 323.596 75.17 306.443 105.08 306.443V289.461C90.7395 289.461 89.8071 303.861 89.8071 284.966L53.8643 219.37C53.8643 201.735 48.5379 187.878 35.017 182C48.5379 176.122 53.8643 162.265 53.8643 144.63V101.381H25L21.9058 140.431C21.9058 155.967 14.9405 168.983 0.600098 168.983V195.017C14.9405 195.017 21.9058 208.033 21.9058 223.569L80.0867 284.966Z" fill="#3B2FC9"/>
<path d="M108.462 181.731C108.462 193.18 99.1802 202.462 87.7309 202.462C76.2816 202.462 67.0001 193.18 67.0001 181.731C67.0001 170.282 76.2816 161 87.7309 161C99.1802 161 108.462 170.282 108.462 181.731Z" fill="white"/>
<path d="M219.026 181.731C219.026 193.18 209.744 202.462 198.295 202.462C186.846 202.462 177.564 193.18 177.564 181.731C177.564 170.282 186.846 161 198.295 161C209.744 161 219.026 170.282 219.026 181.731Z" fill="white"/>
<path d="M163.744 181.731C163.744 193.18 154.462 202.462 143.013 202.462C131.564 202.462 122.282 193.18 122.282 181.731C122.282 170.282 131.564 161 143.013 161C154.462 161 163.744 170.282 163.744 181.731Z" fill="white"/>
<path d="M503.9 115.532H503.855C502.899 116.226 502.052 116.785 501.448 117.199C500.932 117.527 500.399 117.827 499.853 118.101C499.482 118.298 499.079 118.429 498.663 118.488C498.223 118.541 497.78 118.565 497.338 118.56C496.489 118.62 495.643 118.401 494.93 117.938C494.216 117.474 493.672 116.791 493.381 115.991C492.669 114.27 492.317 111.016 492.317 106.32V84.4613C492.378 81.4448 492.176 78.4288 491.713 75.4475C491.319 73.3851 490.565 71.4081 489.487 69.6066C485.881 63.9098 478.859 61.0254 468.53 61.0254C460.958 61.0254 454.874 62.3144 450.502 64.8473C446.13 67.3801 443.832 70.9316 443.832 75.3934C443.788 76.4271 443.95 77.4593 444.309 78.4297C444.668 79.4 445.217 80.2891 445.923 81.045C446.612 81.7549 447.442 82.3132 448.359 82.6842C449.277 83.0551 450.261 83.2306 451.25 83.1993C452.283 83.2414 453.314 83.0791 454.284 82.7217C455.254 82.3644 456.143 81.8191 456.902 81.1171C457.611 80.4276 458.169 79.5977 458.54 78.6805C458.911 77.7633 459.087 76.7789 459.056 75.79C459.087 74.9413 458.945 74.0952 458.638 73.3034C458.331 72.5115 457.866 71.7904 457.271 71.184C456.78 70.722 456.314 70.2346 455.874 69.7237C455.754 69.5831 455.686 69.4043 455.685 69.219C455.706 68.9234 455.792 68.6362 455.939 68.3787C456.086 68.1212 456.289 67.9001 456.532 67.7317C457.212 67.1765 457.972 66.7268 458.786 66.3976C459.817 65.9829 460.89 65.6807 461.986 65.4963C463.196 65.272 464.424 65.1603 465.654 65.1628C471.748 65.1628 475.867 66.9655 477.895 70.6161C478.327 71.3799 478.686 72.1827 478.968 73.0138C479.262 73.9478 479.485 74.9031 479.635 75.8711C479.806 76.9798 479.941 78.3319 480.031 80.0175C480.121 81.703 480.212 83.7852 480.293 86.0477L467.782 88.3101L462.698 89.1124C460.147 89.5721 458.047 90.0137 456.28 90.3833C454.683 90.7281 453.116 91.1982 451.593 91.7895C450.363 92.2695 449.175 92.8514 448.041 93.5291C446.988 94.1766 445.98 94.8933 445.022 95.6744C441.813 98.6219 440.19 102.768 440.19 108.023C440.19 113.63 441.84 118.119 445.094 121.364C448.348 124.609 452.855 126.258 458.479 126.258C462.427 126.306 466.326 125.377 469.828 123.554C473.79 121.256 477.33 118.296 480.293 114.802C480.599 116.24 480.993 117.658 481.473 119.047C481.858 120.005 482.358 120.913 482.961 121.751C483.852 123 485.029 124.017 486.395 124.717C487.707 125.409 489.166 125.777 490.649 125.789C493.121 125.774 495.548 125.125 497.698 123.906C500.566 122.203 503.199 120.134 505.531 117.749L503.9 115.568V115.532ZM480.464 90.2932V100.65C480.464 105.247 479.752 108.762 478.337 111.187C476.971 113.534 474.984 115.458 472.595 116.749C470.195 118.098 467.488 118.809 464.735 118.813C463.132 118.885 461.531 118.627 460.031 118.055C458.532 117.482 457.166 116.608 456.019 115.487C454.909 114.293 454.049 112.889 453.488 111.358C452.928 109.828 452.679 108.2 452.756 106.572C452.756 100.74 455.46 96.756 460.742 94.7189C463.13 93.8202 465.587 93.1149 468.088 92.6097C471.162 91.9427 475.299 91.1585 480.428 90.2841L480.464 90.2932Z" fill="#090B2B"/>
<path d="M550.005 116.478H549.951C548.138 117.199 546.288 117.821 544.408 118.344C543.126 118.692 541.805 118.873 540.478 118.885C537.17 118.885 534.655 117.884 533.005 115.919C531.356 113.954 530.508 110.953 530.508 107.005V69.246H549.095V64.8562H530.508V40.0143H527.624L518.917 48.7216V64.8562H503.792V69.246H518.899V111.611C518.899 116.478 520.025 120.174 522.252 122.608C524.478 125.041 527.867 126.276 532.32 126.276C535.327 126.263 538.313 125.767 541.163 124.807C544.761 123.514 548.217 121.852 551.474 119.849H551.52L550.023 116.586L550.005 116.478Z" fill="#090B2B"/>
<path d="M629.173 54.4003C630.243 54.4338 631.308 54.2479 632.303 53.8542C633.298 53.4604 634.203 52.8671 634.96 52.1108C636.084 50.9988 636.851 49.5768 637.163 48.0267C637.475 46.4765 637.317 44.8686 636.71 43.4084C636.104 41.9483 635.075 40.7022 633.757 39.8295C632.438 38.9567 630.889 38.497 629.308 38.509C628.271 38.5003 627.243 38.6983 626.284 39.0914C625.324 39.4845 624.452 40.0648 623.72 40.7985C622.958 41.502 622.351 42.3569 621.938 43.3083C621.525 44.2597 621.315 45.2868 621.322 46.324C621.304 47.3823 621.497 48.4337 621.89 49.4165C622.283 50.3993 622.868 51.2938 623.612 52.0477C624.323 52.8065 625.185 53.4079 626.143 53.8131C627.101 54.2184 628.133 54.4184 629.173 54.4003Z" fill="#090B2B"/>
<path d="M756.781 109.781C755.153 111.515 753.415 113.144 751.58 114.657C750.104 115.864 748.491 116.892 746.775 117.722C745.186 118.474 743.504 119.014 741.773 119.326C739.81 119.652 737.822 119.806 735.833 119.786C728.315 119.786 722.618 117.244 718.905 112.233C717.275 109.939 716.12 107.344 715.507 104.598C714.747 100.74 714.411 96.8109 714.506 92.8801H761.937V92.817C761.845 89.0676 761.444 85.3322 760.738 81.6489C760.162 78.8996 759.168 76.2549 757.79 73.8069C755.434 69.6805 751.883 66.365 747.605 64.2974C742.846 62.0031 737.617 60.8548 732.335 60.9443C727.901 60.8783 723.493 61.652 719.346 63.2248C715.663 64.6396 712.327 66.8316 709.567 69.6516C706.792 72.5897 704.672 76.0828 703.347 79.9002C701.814 84.2039 701.054 88.7446 701.103 93.3127C701.058 97.9307 701.817 102.521 703.347 106.878C704.693 110.729 706.812 114.263 709.576 117.262C712.316 120.154 715.653 122.415 719.355 123.887C723.448 125.495 727.813 126.291 732.209 126.231C734.863 126.249 737.511 125.998 740.114 125.483C742.507 124.985 744.824 124.179 747.01 123.085C749.299 121.924 751.454 120.515 753.437 118.885C755.738 116.975 757.865 114.863 759.791 112.575V112.53L756.808 109.826L756.781 109.781ZM731.912 65.1357C737.482 65.1357 741.601 66.9384 744.17 70.4899C746.739 74.0413 748.344 80.1166 748.966 88.5174H714.596C715.218 80.0805 716.877 74.0052 719.527 70.4899C722.177 66.9745 726.341 65.1357 731.912 65.1357Z" fill="#090B2B"/>
<path d="M422.055 119.372C420.967 119.049 420.031 118.349 419.414 117.398C418.765 116.233 418.381 114.941 418.287 113.612C418.08 111.44 417.99 109.258 418.017 107.077V30L394.689 35.6246H394.644V39.9692H394.698C396.629 40.0129 398.55 40.2576 400.431 40.6994C401.783 41.0098 403.008 41.7233 403.946 42.7455C404.876 43.9374 405.471 45.3566 405.668 46.8558C406.016 49.1039 406.173 51.3775 406.136 53.6521V107.113C406.136 109.754 406.073 111.926 405.938 113.585C405.889 114.939 405.502 116.259 404.811 117.425C404.159 118.371 403.206 119.07 402.107 119.408C400.513 119.898 398.887 120.278 397.24 120.543L393.977 120.814V124.861H430.23V120.751L426.976 120.471C425.312 120.218 423.668 119.851 422.055 119.372Z" fill="#090B2B"/>
<path d="M641.333 119.372C640.247 119.046 639.311 118.347 638.692 117.398C638.047 116.232 637.663 114.94 637.565 113.612C637.359 111.44 637.268 109.258 637.295 107.077V59.3038L613.967 64.8743H613.922V69.2189H613.976C615.907 69.2563 617.829 69.498 619.709 69.94C621.062 70.2535 622.287 70.9701 623.224 71.9952C624.148 73.1856 624.736 74.6018 624.928 76.0965C625.276 78.3445 625.433 80.6182 625.396 82.8928V107.077C625.396 109.718 625.333 111.899 625.198 113.549C625.149 114.903 624.762 116.223 624.071 117.389C623.421 118.337 622.467 119.036 621.367 119.372C619.773 119.862 618.147 120.242 616.5 120.507L613.291 120.769H613.21V124.861H649.427V120.751L646.173 120.471C644.537 120.215 642.92 119.847 641.333 119.372Z" fill="#090B2B"/>
<path d="M686.654 119.372C685.566 119.049 684.63 118.349 684.013 117.398C683.361 116.234 682.973 114.942 682.877 113.612C682.679 111.439 682.592 109.258 682.616 107.077V30L659.288 35.6246V39.9692H659.342C661.273 40.0138 663.194 40.2585 665.075 40.6994C666.425 41.0072 667.649 41.7212 668.581 42.7455C669.514 43.9367 670.112 45.3558 670.312 46.8558C670.655 49.1044 670.812 51.3776 670.781 53.6521V107.113C670.781 109.754 670.709 111.935 670.573 113.585C670.532 114.94 670.144 116.262 669.447 117.425C668.795 118.372 667.842 119.071 666.743 119.408C665.148 119.896 663.521 120.276 661.875 120.543L658.666 120.805H658.612V124.861H694.82V120.751L691.566 120.471C689.906 120.218 688.264 119.851 686.654 119.372Z" fill="#090B2B"/>
<path d="M604.115 35.2821C601.411 33.3712 597.923 32.3977 593.65 32.3977C587.25 32.3977 582.086 34.4799 578.327 38.5901C574.568 42.7004 572.648 48.3701 572.648 55.4549C572.648 56.167 572.648 59.6824 572.711 60.9894C572.774 62.2964 572.865 63.5583 573.036 64.8923H560.705V69.246H572.865V107.104C572.865 109.808 572.801 111.944 572.666 113.585C572.619 114.942 572.231 116.265 571.539 117.434C570.889 118.382 569.935 119.081 568.835 119.417C567.244 119.906 565.621 120.286 563.977 120.552L560.768 120.814H560.714V124.861H597.887V120.742L593.695 120.471C592.049 120.205 590.422 119.825 588.828 119.336C587.728 119 586.774 118.301 586.124 117.353C585.429 116.185 585.042 114.861 584.997 113.504C584.862 111.872 584.799 109.691 584.799 107.023V69.246H601.492V64.8563H584.736C583.364 61.0603 582.386 57.1339 581.815 53.1384C581.33 50.1171 581.394 47.033 582.005 44.0345C582.753 40.9698 584.33 38.8425 586.701 37.7248L586.962 37.6167L587.097 37.5716L587.232 37.5175L587.323 37.4724L587.638 37.3823C588.705 36.9864 589.835 36.7849 590.973 36.7874C592.137 36.7741 593.291 37.0012 594.362 37.4544C595.363 37.8871 595.868 38.3558 595.868 38.7434C595.868 38.9868 595.597 39.3834 595.074 39.8971C594.387 40.5615 593.841 41.3587 593.471 42.2404C593.1 43.122 592.913 44.0697 592.92 45.026C592.879 45.9592 593.039 46.8904 593.389 47.7566C593.739 48.6228 594.271 49.4037 594.948 50.0467C596.341 51.3241 598.179 52.0038 600.068 51.9395C601.161 51.9628 602.246 51.7456 603.246 51.3032C604.246 50.8609 605.137 50.2042 605.855 49.3796C607.409 47.5931 608.227 45.2833 608.144 42.9168C608.165 41.4087 607.807 39.9196 607.103 38.5857C606.399 37.2519 605.372 36.116 604.115 35.2821Z" fill="#090B2B"/>
<path d="M319 35.6246V40.0143L323.867 40.5551C327.473 40.9067 329.943 41.8441 331.178 43.3404C331.511 43.7369 331.812 44.1588 332.079 44.6023C332.336 45.1403 332.491 45.7208 332.539 46.3149C332.629 47.0631 332.692 48.0095 332.737 49.1182C332.782 50.2269 332.8 51.7322 332.8 53.6251V106.924C332.8 108.789 332.8 110.295 332.737 111.43C332.674 112.566 332.629 113.486 332.539 114.234C332.488 114.857 332.329 115.467 332.07 116.036C331.85 116.476 331.561 116.878 331.214 117.226C329.979 118.723 327.518 119.66 323.903 120.012L319.081 120.552H319.036V124.861H361.536V120.471L355.326 119.93C351.792 119.669 349.331 118.732 348.015 117.145C347.671 116.808 347.4 116.403 347.222 115.955C347.003 115.373 346.846 114.768 346.753 114.153C346.608 113.228 346.521 112.294 346.492 111.358C346.447 110.295 346.429 108.825 346.429 106.851V86.246H358.048C359.185 86.2665 360.319 86.3841 361.437 86.5975C362.6 86.8283 363.693 87.3284 364.628 88.0577C365.577 88.8515 366.364 89.8218 366.944 90.9151C367.706 92.3481 368.31 93.8592 368.747 95.422L369.829 99.1537H375.129V67.4613H369.838L368.981 71.0668C368.477 72.7442 367.86 74.3855 367.134 75.9793C366.605 77.1308 365.858 78.1686 364.934 79.0349C364.1 79.7846 363.103 80.3307 362.023 80.6304C361.219 80.8334 360.398 80.9602 359.571 81.009H346.402V41.1951H361.004C364.582 41.1425 368.158 41.3897 371.695 41.9342C374.058 42.2394 376.296 43.1732 378.175 44.6384C379.785 46.115 380.91 48.0445 381.402 50.1728C382.098 53.1291 382.482 56.1502 382.547 59.1866V59.2407H387.73V35.6246H319Z" fill="#090B2B"/>
</svg>
