<svg fill="none" height="82" viewBox="0 0 74 82" width="74" xmlns="http://www.w3.org/2000/svg" xmlns:xlink="http://www.w3.org/1999/xlink"><filter id="a" color-interpolation-filters="sRGB" filterUnits="userSpaceOnUse" height="81.8695" width="73.8164" x=".000022" y=".0002"><feFlood flood-opacity="0" result="BackgroundImageFix"/><feColorMatrix in="SourceAlpha" result="hardAlpha" type="matrix" values="0 0 0 0 0 0 0 0 0 0 0 0 0 0 0 0 0 0 127 0"/><feOffset dy="1.38164"/><feGaussianBlur stdDeviation="1.38164"/><feColorMatrix type="matrix" values="0 0 0 0 0.529412 0 0 0 0 0.509804 0 0 0 0 0.509804 0 0 0 0.1 0"/><feBlend in2="BackgroundImageFix" mode="normal" result="effect1_dropShadow_1628_725"/><feColorMatrix in="SourceAlpha" result="hardAlpha" type="matrix" values="0 0 0 0 0 0 0 0 0 0 0 0 0 0 0 0 0 0 127 0"/><feOffset dy="4.14491"/><feGaussianBlur stdDeviation="2.07245"/><feColorMatrix type="matrix" values="0 0 0 0 0.529412 0 0 0 0 0.509804 0 0 0 0 0.509804 0 0 0 0.09 0"/><feBlend in2="effect1_dropShadow_1628_725" mode="normal" result="effect2_dropShadow_1628_725"/><feColorMatrix in="SourceAlpha" result="hardAlpha" type="matrix" values="0 0 0 0 0 0 0 0 0 0 0 0 0 0 0 0 0 0 127 0"/><feOffset dy="8.28982"/><feGaussianBlur stdDeviation="2.76327"/><feColorMatrix type="matrix" values="0 0 0 0 0.529412 0 0 0 0 0.509804 0 0 0 0 0.509804 0 0 0 0.05 0"/><feBlend in2="effect2_dropShadow_1628_725" mode="normal" result="effect3_dropShadow_1628_725"/><feColorMatrix in="SourceAlpha" result="hardAlpha" type="matrix" values="0 0 0 0 0 0 0 0 0 0 0 0 0 0 0 0 0 0 127 0"/><feOffset dy="16.5796"/><feGaussianBlur stdDeviation="3.45409"/><feColorMatrix type="matrix" values="0 0 0 0 0.529412 0 0 0 0 0.509804 0 0 0 0 0.509804 0 0 0 0.01 0"/><feBlend in2="effect3_dropShadow_1628_725" mode="normal" result="effect4_dropShadow_1628_725"/><feBlend in="SourceGraphic" in2="effect4_dropShadow_1628_725" mode="normal" result="shape"/></filter><g filter="url(#a)"><path clip-rule="evenodd" d="m36.7425 3.33176c.1029.05856.2285.05856.3314 0 4.4616-2.540018 10.0859-2.692523 14.8343.09864 4.7484 2.79116 7.4308 7.8264 7.5011 13.0303.0016.12.0644.2307.1657.2922 4.3913 2.6638 7.3332 7.5466 7.3332 13.1289s-2.9419 10.4651-7.3332 13.129c-.1013.0614-.1641.1722-.1657.2922-.0703 5.2038-2.7527 10.2391-7.5011 13.0303-4.7484 2.7911-10.3727 2.6386-14.8343.0986-.1029-.0585-.2285-.0585-.3314 0-4.4616 2.54-10.0859 2.6925-14.8343-.0986-4.7484-2.7912-7.4308-7.8265-7.5011-13.0303-.0016-.12-.0644-.2308-.1657-.2922-4.39134-2.6639-7.3332-7.5467-7.3332-13.129s2.94186-10.4651 7.3332-13.1289c.1013-.0615.1641-.1722.1657-.2922.0702-5.2039 2.7527-10.23912 7.5011-13.03028 4.7484-2.791166 10.3727-2.63867 14.8343-.09866zm-7.3262 40.36384c-.0096-.2591-.2872-.4223-.5123-.3012-2.0887 1.1232-4.4693 1.7592-6.9958 1.7592-.8897 0-1.7613-.0789-2.6084-.2301-.2282-.0408-.4318.1577-.3849.3887.5975 2.9423 2.3793 5.6218 5.1361 7.2423 2.7569 1.6205 5.927 1.8518 8.7286.9074.2199-.0741.2869-.3528.1381-.5337-.5522-.6713-1.0551-1.4003-1.4999-2.1848-1.2632-2.2276-1.9126-4.6446-2.0015-7.0478zm15.4962-.3012c-.2252-.1211-.5028.0421-.5124.3012-.0889 2.4032-.7383 4.8202-2.0015 7.0478-.4449.7845-.9478 1.5135-1.5 2.1848-.1487.1809-.0817.4596.1382.5337 2.8016.9444 5.9717.7131 8.7285-.9074 2.7569-1.6205 4.5387-4.3 5.1362-7.2423.0469-.231-.1567-.4295-.3849-.3887-.8471.1512-1.7187.2301-2.6084.2301-2.5265 0-4.9071-.636-6.9957-1.7592zm-7.7764-7.8466c-.1246-.1319-.3312-.1319-.4558 0-3.2235 3.4124-3.9926 8.7083-1.5509 13.0139.4422.7799.9648 1.4831 1.5508 2.1051.1247.1323.3313.1323.456 0 .586-.622 1.1086-1.3252 1.5508-2.1051 2.4417-4.3056 1.6726-9.6015-1.5509-13.0139zm-4.9335-2.6321c.0499-.1758-.0534-.3579-.2278-.4018-4.5145-1.136-9.4038.8338-11.8454 5.1394-.4423.7799-.7792 1.5923-1.0152 2.42-.0503.1761.0531.3583.2279.402.8222.2058 1.6816.3149 2.5661.3149 4.8833 0 9.0035-3.3261 10.2944-7.8745zm21.4844 4.7376c-2.4416-4.3056-7.3309-6.2754-11.8453-5.1394-.1745.0439-.2778.226-.2279.4018 1.2909 4.5484 5.4111 7.8745 10.2944 7.8745.8845 0 1.7439-.1091 2.5661-.3149.1748-.0437.2782-.2259.2279-.402-.236-.8277-.5729-1.6401-1.0152-2.42zm5.3431-15.9212c-.173-.1569-.4436-.0766-.523.145-.295.8225-.6637 1.6304-1.1085 2.4149-1.2633 2.2276-2.9945 4.0086-4.9943 5.2887-.2155.138-.2155.4643 0 .6023 1.9998 1.28 3.731 3.061 4.9943 5.2887.4448.7844.8135 1.5924 1.1085 2.4149.0794.2216.35.3019.523.145 2.2041-1.998 3.5924-4.9088 3.5924-8.1498 0-3.2409-1.3883-6.1518-3.5924-8.1497zm-43.7208.145c-.0794-.2216-.35-.3019-.523-.145-2.2041 1.9979-3.5924 4.9088-3.5924 8.1497 0 3.241 1.3883 6.1518 3.5924 8.1498.173.1568.4436.0766.523-.145.295-.8226.6637-1.6305 1.1085-2.4149 1.2632-2.2277 2.9945-4.0087 4.9942-5.2887.2156-.138.2156-.4643 0-.6023-1.9997-1.2801-3.731-3.0611-4.9942-5.2887-.4448-.7845-.8135-1.5924-1.1085-2.4149zm6.5989-2.9037c-.8845 0-1.7439.1092-2.5661.3149-.1748.0438-.2782.226-.2279.402.236.8278.5729 1.6402 1.0151 2.42 2.4417 4.3057 7.3311 6.2755 11.8455 5.1395.1745-.0439.2777-.226.2278-.4018-1.2909-4.5485-5.4111-7.8746-10.2944-7.8746zm30 0c-4.8833 0-9.0035 3.3261-10.2944 7.8746-.0499.1758.0534.3579.2279.4018 4.5144 1.136 9.4037-.8338 11.8453-5.1395.4423-.7799.7792-1.5922 1.0152-2.42.0502-.176-.0531-.3582-.2279-.402-.8222-.2057-1.6816-.3149-2.5661-.3149zm-14.772-9.87657c-.1247-.13231-.3313-.13231-.456 0-.586.62202-1.1086 1.32527-1.5509 2.10507-2.4416 4.3057-1.6725 9.6016 1.551 13.014.1246.1319.3312.1319.4558 0 3.2235-3.4124 3.9926-8.7083 1.5509-13.014-.4422-.7798-.9648-1.48305-1.5508-2.10507zm-4.2185-2.26139c.1488-.18084.0818-.45955-.1381-.53369-2.8016-.94441-5.9717-.71304-8.7286.90744-2.7568 1.62048-4.5386 4.29991-5.1361 7.24231-.0469.231.1567.4294.3849.3887.8471-.1512 1.7187-.2301 2.6084-.2301 2.5265 0 4.907.6359 6.9957 1.7591.2252.1211.5028-.042.5124-.3011.0889-2.4033.7383-4.8202 2.0015-7.04785.4448-.78445.9477-1.51351 1.4999-2.18481zm16.8476.37373c-2.7568-1.62047-5.9269-1.85183-8.7285-.90742-.2199.07414-.2869.35285-.1382.53369.5522.6713 1.0551 1.40036 1.5 2.18481 1.2632 2.22765 1.9126 4.64455 2.0015 7.04785.0096.2591.2872.4222.5124.3011 2.0887-1.1232 4.4692-1.7591 6.9957-1.7591.8897 0 1.7613.0789 2.6084.2301.2282.0407.4318-.1577.3849-.3887-.5975-2.9424-2.3794-5.62184-5.1362-7.24233z" fill="#000" fill-rule="evenodd"/></g></svg>